<svg width="50" height="57" viewBox="0 0 50 57" fill="none" xmlns="http://www.w3.org/2000/svg">
<g filter="url(#filter0_f_867_13)">
<path d="M25.4249 47.1028C25.42 47.21 25.3739 47.3111 25.2963 47.3851C25.2187 47.4592 25.1155 47.5004 25.0083 47.5003C24.7666 47.5003 24.5833 47.3253 24.5749 47.1028C24.4541 44.4628 23.1116 42.7553 20.5483 41.9803C12.1083 39.9737 5.83325 32.3862 5.83325 23.3337C5.83325 12.7478 14.4141 4.16699 24.9999 4.16699C35.5858 4.16699 44.1666 12.7478 44.1666 23.3337C44.1666 32.3862 37.8916 39.9737 29.4516 41.9803C26.8883 42.7553 25.5458 44.4637 25.4266 47.1028H25.4249Z" fill="#3BE925"/>
</g>
<path d="M25.0002 43.3984C24.8941 43.2327 24.7797 43.0716 24.6568 42.9152C23.7549 41.768 22.4893 41.0001 20.9824 40.5445L20.9391 40.5314L20.8952 40.521C13.1159 38.6714 7.33325 31.6759 7.33325 23.3337C7.33325 13.5763 15.2425 5.66699 24.9999 5.66699C34.7573 5.66699 42.6666 13.5763 42.6666 23.3337C42.6666 31.6759 36.8839 38.6714 29.1046 40.521L29.0607 40.5314L29.0175 40.5445C27.5104 41.0002 26.2447 41.7683 25.3431 42.9157C25.2203 43.072 25.1061 43.2329 25.0002 43.3984Z" fill="#3BE925" stroke="black" stroke-width="3"/>
<path d="M25.0001 56.6667C23.1584 56.6667 21.6667 55.175 21.6667 53.3333C21.6667 51.4917 23.1584 50 25.0001 50C26.8417 50 28.3334 51.4917 28.3334 53.3333C28.3334 55.175 26.8417 56.6667 25.0001 56.6667Z" fill="black"/>
<path fill-rule="evenodd" clip-rule="evenodd" d="M25.0001 54.9999C25.222 55.0049 25.4427 54.9655 25.6493 54.8841C25.8558 54.8026 26.044 54.6807 26.2027 54.5256C26.3615 54.3704 26.4877 54.1851 26.5738 53.9804C26.66 53.7758 26.7044 53.5561 26.7044 53.3341C26.7045 53.1121 26.6602 52.8923 26.5741 52.6876C26.4881 52.483 26.362 52.2976 26.2033 52.1423C26.0446 51.9871 25.8565 51.8651 25.65 51.7835C25.4436 51.702 25.2229 51.6625 25.0009 51.6674C24.5654 51.677 24.1511 51.8568 23.8464 52.1681C23.5418 52.4794 23.3712 52.8977 23.3711 53.3332C23.371 53.7688 23.5414 54.1871 23.8459 54.4986C24.1503 54.8101 24.5646 54.9901 25.0001 54.9999Z" fill="#3BE925"/>
<path d="M25.0003 42.5002C21.2094 42.5002 17.5037 41.376 14.3517 39.2699C11.1997 37.1638 8.74298 34.1703 7.29227 30.668C5.84156 27.1657 5.46198 23.3118 6.20155 19.5938C6.94112 15.8757 8.7666 12.4605 11.4472 9.77993C14.1277 7.09937 17.543 5.27388 21.261 4.53431C24.9791 3.79475 28.8329 4.17432 32.3353 5.62503C35.8376 7.07574 38.8311 9.53243 40.9372 12.6844C43.0433 15.8364 44.1674 19.5422 44.1674 23.3331C44.1565 28.4132 42.1336 33.282 38.5414 36.8742C34.9492 40.4663 30.0804 42.4892 25.0003 42.5002ZM25.0003 8.26881C22.0291 8.26881 19.1246 9.14989 16.6541 10.8006C14.1836 12.4513 12.2581 14.7976 11.121 17.5427C9.98399 20.2877 9.68649 23.3083 10.2662 26.2225C10.8458 29.1366 12.2766 31.8134 14.3776 33.9144C16.4786 36.0154 19.1554 37.4462 22.0695 38.0258C24.9837 38.6055 28.0043 38.308 30.7493 37.1709C33.4944 36.0339 35.8406 34.1084 37.4914 31.6379C39.1421 29.1674 40.0232 26.2629 40.0232 23.2917C40.0122 19.3107 38.426 15.4959 35.611 12.681C32.796 9.86602 28.9813 8.27975 25.0003 8.26881Z" fill="black"/>
<path d="M34.7392 22.7442C34.7955 26.9908 32.2829 31.462 28.0311 32.8435C23.7794 34.225 19.1999 31.9492 16.7271 28.5967L34.7392 22.7442Z" fill="black"/>
<path d="M19.2818 25.2773C21.4966 24.5576 22.7087 22.1787 21.9891 19.9638C21.2694 17.749 18.8905 16.5369 16.6757 17.2565C14.4608 17.9762 13.2487 20.3551 13.9683 22.5699C14.688 24.7848 17.0669 25.9969 19.2818 25.2773Z" fill="black"/>
<path d="M30.6138 21.5966C32.8287 20.8769 34.0408 18.498 33.3211 16.2832C32.6015 14.0683 30.2226 12.8562 28.0077 13.5759C25.7928 14.2955 24.5807 16.6744 25.3004 18.8893C26.02 21.1041 28.3989 22.3163 30.6138 21.5966Z" fill="black"/>
<defs>
<filter id="filter0_f_867_13" x="-0.166748" y="-1.83301" width="50.3333" height="55.333" filterUnits="userSpaceOnUse" color-interpolation-filters="sRGB">
<feFlood flood-opacity="0" result="BackgroundImageFix"/>
<feBlend mode="normal" in="SourceGraphic" in2="BackgroundImageFix" result="shape"/>
<feGaussianBlur stdDeviation="3" result="effect1_foregroundBlur_867_13"/>
</filter>
</defs>
</svg>
