<svg width="320" height="2051" viewBox="0 0 320 2051" fill="none" xmlns="http://www.w3.org/2000/svg">
<path d="M-14.8808 6.64C100.915 -20.772 76.1304 75.2157 125.255 90.2222C169.516 103.743 227.849 67.9368 268.379 91.7126C340.845 134.222 335.283 211.327 335.283 211.327C334.073 246.617 319.378 302.626 290.652 336.198C249.152 384.698 214.457 406.842 113.152 439.698C20.6516 469.698 369.488 668.713 358.5 772C348.5 866 45.8247 857.364 -6.00001 965C-110 1181 343.834 1177 345 1285C346.535 1427.24 -269 1407.5 13 1600.5C68.2623 1638.32 128 1573 88.9999 1557C61.4999 1545.72 0.499945 1628.5 56 1675.5C132 1719 354.5 1789.5 368.5 1864.5C381.58 1934.57 355.5 2030.5 229 2049.5" stroke="#00FF0B" stroke-width="2" stroke-linecap="round" stroke-dasharray="6 6"/>
</svg>
