<svg width="75" height="75" viewBox="0 0 75 75" fill="none" xmlns="http://www.w3.org/2000/svg">
<g clip-path="url(#clip0_26_516)">
<path d="M43.1 42.9004C42.3 50.8004 40 57.5004 37.2 57.5004C34.5 57.5004 32.1 50.6004 31.3 42.9004H43.1Z" fill="#00FF0B"/>
<path d="M37.2 74.5C16.7 74.5 0 57.8 0 37.2C0 16.7 16.7 0 37.2 0C57.7 0 74.4 16.7 74.4 37.2C74.5 57.8 57.8 74.5 37.2 74.5ZM37.2 8C21.1 8 8 21.1 8 37.2C8 53.3 21.1 66.4 37.2 66.4C53.3 66.4 66.4 53.3 66.4 37.2C66.5 21.1 53.4 8 37.2 8Z" fill="#00FF0B"/>
<path d="M41 36.1002L48.4 22.2002L50.2 25.6002C55.6 35.9002 55.7 36.3002 55.8 36.5002L53.8 37.0002L51.9 37.7002C51.7 37.2002 50 33.9002 48.4 30.8002L44.5 38.0002L41 36.1002Z" fill="#00FF0B"/>
<path d="M33.3 36.3002L29.7 38.2002L26 31.0002L22.3 38.2002L18.8 36.3002L26 22.2002L33.3 36.3002Z" fill="#00FF0B"/>
</g>
<defs>
<clipPath id="clip0_26_516">
<rect width="74.5" height="74.5" fill="white"/>
</clipPath>
</defs>
</svg>
