<svg width="75" height="75" viewBox="0 0 75 75" fill="none" xmlns="http://www.w3.org/2000/svg">
<g clip-path="url(#clip0_26_510)">
<path d="M43.2 42.9004C42.4 50.8004 40.1 57.5004 37.3 57.5004C34.6 57.5004 32.2 50.6004 31.4 42.9004H43.2Z" fill="#00FF0B"/>
<path d="M71.9 18.6004C71.9 23.8004 67.7 28.0004 62.5 28.0004C57.3 28.0004 53.1 23.8004 53.1 18.6004C53.1 13.4004 62.5 2.40039 62.5 2.40039C62.5 2.40039 71.9 13.4004 71.9 18.6004Z" fill="#00FF0B"/>
<path d="M59 31.7998H41.2V35.7998H59V31.7998Z" fill="#00FF0B"/>
<path d="M33.3 31.7998H15.5V35.7998H33.3V31.7998Z" fill="#00FF0B"/>
<path d="M37.2 74.5C16.7 74.5 0 57.8 0 37.2C0 16.7 16.7 0 37.2 0C57.7 0 74.4 16.7 74.4 37.2C74.5 57.8 57.8 74.5 37.2 74.5ZM37.2 8C21.1 8 8 21.1 8 37.2C8 53.3 21.1 66.4 37.2 66.4C53.3 66.4 66.4 53.3 66.4 37.2C66.5 21.1 53.4 8 37.2 8Z" fill="#00FF0B"/>
</g>
<defs>
<clipPath id="clip0_26_510">
<rect width="74.5" height="74.5" fill="white"/>
</clipPath>
</defs>
</svg>
