<svg width="75" height="75" viewBox="0 0 75 75" fill="none" xmlns="http://www.w3.org/2000/svg">
<g clip-path="url(#clip0_26_521)">
<path d="M37.2 58.2996L46.5 35.0996H28L37.2 58.2996Z" fill="#00FF0B"/>
<path d="M59 26.0996H41.2V30.0996H59V26.0996Z" fill="#00FF0B"/>
<path d="M33.3 26.0996H15.5V30.0996H33.3V26.0996Z" fill="#00FF0B"/>
<path d="M37.2 74.5C16.7 74.5 0 57.8 0 37.2C0 16.7 16.7 0 37.2 0C57.7 0 74.4 16.7 74.4 37.2C74.5 57.8 57.8 74.5 37.2 74.5ZM37.2 8C21.1 8 8 21.1 8 37.2C8 53.3 21.1 66.4 37.2 66.4C53.3 66.4 66.4 53.3 66.4 37.2C66.5 21.1 53.4 8 37.2 8Z" fill="#00FF0B"/>
</g>
<defs>
<clipPath id="clip0_26_521">
<rect width="74.5" height="74.5" fill="white"/>
</clipPath>
</defs>
</svg>
