<svg width="196" height="150" viewBox="0 0 196 150" fill="none" xmlns="http://www.w3.org/2000/svg">
<path d="M14.24 105.461C6.08 95.3498 2 90.2848 2 75.273C2 60.252 6.08 55.2054 14.24 45.0845C30.5312 24.8978 57.8528 2 98 2C138.147 2 165.469 24.8978 181.76 45.0845C189.92 55.2145 194 60.2612 194 75.273C194 90.294 189.92 95.3406 181.76 105.461C165.469 125.648 138.147 148.546 98 148.546C57.8528 148.546 30.5312 125.648 14.24 105.461Z" stroke="#00FF0B" stroke-width="2.5"/>
<path d="M126.8 75.273C126.8 82.5605 123.766 89.5495 118.365 94.7025C112.964 99.8555 105.638 102.75 98 102.75C90.3618 102.75 83.0364 99.8555 77.6353 94.7025C72.2343 89.5495 69.2 82.5605 69.2 75.273C69.2 67.9856 72.2343 60.9966 77.6353 55.8436C83.0364 50.6906 90.3618 47.7957 98 47.7957C105.638 47.7957 112.964 50.6906 118.365 55.8436C123.766 60.9966 126.8 67.9856 126.8 75.273Z" stroke="#00FF0B" stroke-width="2.5"/>
</svg>
