<svg width="140" height="166" viewBox="0 0 140 166" fill="none" xmlns="http://www.w3.org/2000/svg">
<path d="M16.2101 66.3841L42.2371 32.7859C59.0586 11.0683 67.4736 0.20947 75.3191 2.5045C83.1646 4.79953 83.1646 18.1156 83.1646 44.7557V47.2697C83.1646 56.8796 83.1646 61.6806 86.3861 64.6892L86.5561 64.8514C89.8456 67.7952 95.0816 67.7952 105.562 67.7952C124.432 67.7952 133.859 67.7952 137.046 73.253L137.199 73.5287C140.208 79.0676 134.743 86.123 123.82 100.209L97.7931 133.816C80.9631 155.533 72.5566 166.392 64.7111 164.097C56.8656 161.802 56.8656 148.486 56.8656 121.846V119.332C56.8656 109.722 56.8656 104.921 53.6441 101.912L53.4741 101.75C50.1846 98.8065 44.9486 98.8065 34.4681 98.8065C15.5981 98.8065 6.17161 98.8065 2.98411 93.3487C2.93141 93.2577 2.8804 93.1657 2.83112 93.073C-0.177882 87.5341 5.28762 80.4868 16.2101 66.3923V66.3841Z" stroke="#00FF0B" stroke-width="2.5"/>
</svg>
