<svg width="686" height="686" viewBox="0 0 686 686" fill="none" xmlns="http://www.w3.org/2000/svg">
<path d="M392.503 394.267C385.255 465.95 364.416 526.745 339.047 526.745C314.584 526.745 292.839 464.136 285.591 394.267H392.503Z" fill="#0077FF"/>
<path d="M339.047 681C153.309 681 2 529.467 2 342.546C2 156.533 153.309 5 339.047 5C524.785 5 676.094 156.533 676.094 342.546C677 529.467 525.691 681 339.047 681ZM339.047 77.5906C193.174 77.5906 74.4832 196.458 74.4832 342.546C74.4832 488.635 193.174 607.502 339.047 607.502C484.919 607.502 603.611 488.635 603.611 342.546C604.517 196.458 485.825 77.5906 339.047 77.5906Z" fill="#0077FF"/>
<path d="M373.477 332.565L440.524 206.439L456.832 237.29C505.758 330.75 506.664 334.38 507.571 336.195L489.45 340.732L472.235 347.083C470.423 342.546 455.02 312.603 440.524 284.474L405.188 349.805L373.477 332.565Z" fill="#0077FF"/>
<path d="M303.711 334.38L271.094 351.62L237.57 286.289L204.047 351.62L172.336 334.38L237.57 206.439L303.711 334.38Z" fill="#0077FF"/>
<mask id="path-5-inside-1_209_181" fill="white">
<path fill-rule="evenodd" clip-rule="evenodd" d="M10 342.546C10 529.467 161.309 681 347.047 681C533.691 681 685 529.467 684.094 342.546C684.094 156.533 532.785 5 347.047 5C161.309 5 10 156.533 10 342.546ZM82.4832 342.546C82.4832 196.458 201.174 77.5906 347.047 77.5906C493.825 77.5906 612.517 196.458 611.611 342.546C611.611 488.635 492.919 607.502 347.047 607.502C201.174 607.502 82.4832 488.635 82.4832 342.546ZM347.047 526.745C372.416 526.745 393.255 465.95 400.503 394.267H293.591C300.839 464.136 322.584 526.745 347.047 526.745ZM381.477 332.565L448.523 206.439L464.832 237.29C508.801 321.281 513.988 332.722 515.245 335.496C515.29 335.596 515.331 335.684 515.367 335.765C515.446 335.936 515.508 336.07 515.57 336.195L497.45 340.732L480.235 347.083C478.423 342.546 463.02 312.603 448.523 284.474L413.188 349.805L381.477 332.565ZM279.094 351.62L311.711 334.38L245.57 206.439L180.336 334.38L212.047 351.62L245.57 286.289L279.094 351.62Z"/>
</mask>
<path d="M684.094 342.546L681.594 342.546L681.594 342.558L684.094 342.546ZM611.611 342.546L609.111 342.531L609.111 342.539V342.546H611.611ZM400.503 394.267L402.991 394.519L403.269 391.767H400.503V394.267ZM293.591 394.267V391.767H290.818L291.104 394.525L293.591 394.267ZM448.523 206.439L450.734 205.271L448.53 201.101L446.316 205.265L448.523 206.439ZM381.477 332.565L379.269 331.392L378.106 333.579L380.282 334.762L381.477 332.565ZM464.832 237.29L467.047 236.13L467.042 236.122L464.832 237.29ZM515.245 335.496L517.522 334.463L517.522 334.463L515.245 335.496ZM515.367 335.765L513.093 336.803L513.093 336.804L515.367 335.765ZM515.57 336.195L516.178 338.62L519.198 337.864L517.807 335.078L515.57 336.195ZM497.45 340.732L496.842 338.306L496.711 338.339L496.584 338.386L497.45 340.732ZM480.235 347.083L477.913 348.011L478.816 350.271L481.1 349.429L480.235 347.083ZM448.523 284.474L450.746 283.329L448.577 279.12L446.325 283.285L448.523 284.474ZM413.188 349.805L411.994 352.002L414.195 353.198L415.387 350.995L413.188 349.805ZM311.711 334.38L312.88 336.59L315.07 335.432L313.932 333.232L311.711 334.38ZM279.094 351.62L276.87 352.762L278.025 355.013L280.262 353.83L279.094 351.62ZM245.57 206.439L247.791 205.291L245.555 200.965L243.343 205.303L245.57 206.439ZM180.336 334.38L178.108 333.244L177.002 335.413L179.141 336.576L180.336 334.38ZM212.047 351.62L210.853 353.817L213.102 355.04L214.271 352.762L212.047 351.62ZM245.57 286.289L247.795 285.147L245.57 280.813L243.346 285.147L245.57 286.289ZM347.047 678.5C162.697 678.5 12.5 528.094 12.5 342.546H7.5C7.5 530.84 159.92 683.5 347.047 683.5V678.5ZM681.594 342.558C682.493 528.09 532.309 678.5 347.047 678.5V683.5C535.073 683.5 687.507 530.844 686.594 342.534L681.594 342.558ZM347.047 7.5C531.401 7.5 681.594 157.91 681.594 342.546H686.594C686.594 155.156 534.169 2.5 347.047 2.5V7.5ZM12.5 342.546C12.5 157.91 162.693 7.5 347.047 7.5V2.5C159.925 2.5 7.5 155.156 7.5 342.546H12.5ZM347.047 75.0906C199.79 75.0906 79.9832 195.081 79.9832 342.546H84.9832C84.9832 197.835 202.559 80.0906 347.047 80.0906V75.0906ZM614.111 342.562C615.025 195.075 495.201 75.0906 347.047 75.0906V80.0906C492.45 80.0906 610.008 197.84 609.111 342.531L614.111 342.562ZM347.047 610.002C494.304 610.002 614.111 490.012 614.111 342.546H609.111C609.111 487.258 491.535 605.002 347.047 605.002V610.002ZM79.9832 342.546C79.9832 490.012 199.79 610.002 347.047 610.002V605.002C202.559 605.002 84.9832 487.258 84.9832 342.546H79.9832ZM398.016 394.016C394.406 429.722 387.418 462.606 378.237 486.49C373.642 498.445 368.548 508.006 363.156 514.533C357.739 521.089 352.317 524.245 347.047 524.245V529.245C354.461 529.245 361.157 524.802 367.01 517.718C372.886 510.606 378.213 500.489 382.904 488.284C392.297 463.85 399.353 430.496 402.991 394.519L398.016 394.016ZM293.591 396.767H400.503V391.767H293.591V396.767ZM347.047 524.245C342.056 524.245 336.751 521.038 331.342 514.305C325.977 507.626 320.85 497.882 316.196 485.807C306.897 461.685 299.686 428.795 296.077 394.009L291.104 394.525C294.743 429.607 302.029 462.956 311.531 487.606C316.276 499.917 321.626 510.192 327.444 517.436C333.22 524.626 339.807 529.245 347.047 529.245V524.245ZM446.316 205.265L379.269 331.392L383.684 333.739L450.731 207.612L446.316 205.265ZM467.042 236.122L450.734 205.271L446.313 207.607L462.622 238.458L467.042 236.122ZM517.522 334.463C516.23 331.613 511.008 320.106 467.047 236.13L462.617 238.449C506.595 322.456 511.746 333.831 512.968 336.528L517.522 334.463ZM517.641 334.726C517.606 334.649 517.568 334.564 517.522 334.463L512.968 336.528C513.013 336.627 513.055 336.719 513.093 336.803L517.641 334.726ZM517.807 335.078C517.765 334.993 517.716 334.89 517.641 334.726L513.093 336.804C513.175 336.981 513.251 337.147 513.334 337.311L517.807 335.078ZM498.057 343.157L516.178 338.62L514.963 333.77L496.842 338.306L498.057 343.157ZM481.1 349.429L498.315 343.077L496.584 338.386L479.37 344.738L481.1 349.429ZM446.301 285.619C453.55 299.684 461.022 314.197 466.908 325.76C472.835 337.404 477.062 345.879 477.913 348.011L482.557 346.156C481.596 343.751 477.215 334.985 471.364 323.491C465.471 311.916 457.994 297.392 450.746 283.329L446.301 285.619ZM415.387 350.995L450.722 285.663L446.325 283.285L410.989 348.616L415.387 350.995ZM380.282 334.762L411.994 352.002L414.382 347.609L382.671 330.369L380.282 334.762ZM310.543 332.17L277.926 349.41L280.262 353.83L312.88 336.59L310.543 332.17ZM243.35 207.587L309.491 335.528L313.932 333.232L247.791 205.291L243.35 207.587ZM182.563 335.515L247.798 207.575L243.343 205.303L178.108 333.244L182.563 335.515ZM213.241 349.424L181.53 332.183L179.141 336.576L210.853 353.817L213.241 349.424ZM243.346 285.147L209.823 350.479L214.271 352.762L247.795 287.43L243.346 285.147ZM281.318 350.479L247.795 285.147L243.346 287.43L276.87 352.762L281.318 350.479Z" fill="#00FF0B" mask="url(#path-5-inside-1_209_181)"/>
</svg>
