<svg width="219" height="33" viewBox="0 0 219 33" fill="none" xmlns="http://www.w3.org/2000/svg">
<g clip-path="url(#clip0_20_2)">
<path d="M17.302 16.7632C17.302 22.0675 13.5632 25.5902 8.79023 25.5902C4.0968 25.5902 0.0397748 22.3104 0 15.1436C0 2.99633 5.88667 0.890808 15.194 0.890808V4.21105C7.55721 4.21105 4.01725 5.42578 3.50018 12.0663C4.7332 9.7178 7.11969 8.50308 9.66527 8.50308C13.961 8.54357 17.302 11.7828 17.302 16.7632ZM13.8416 16.9657C13.8416 13.6859 11.654 11.5399 8.79023 11.5399C5.96622 11.5399 3.46041 13.6454 3.46041 16.9657C3.46041 20.4074 5.6878 22.5534 8.59136 22.5534C11.4949 22.5534 13.8416 20.3669 13.8416 16.9657Z" fill="white"/>
<path d="M65.9466 21.946V29.6797H62.4862V25.2258H48.2468V29.6797H44.7864V21.946H47.7298C48.4855 21.3386 48.9628 20.0429 49.3605 17.6135L50.872 8.13864H62.884V21.946H65.9466ZM59.4236 21.946V11.4184H53.8153L52.8209 17.7755C52.5027 19.7595 52.105 21.0552 51.5084 21.946H59.4236Z" fill="white"/>
<path d="M86.1522 16.6822C86.1522 21.9055 82.8907 25.6307 78.3961 25.6307C75.771 25.6307 73.7425 24.335 72.5095 22.3914V33.0405H69.0491V8.13864H72.5095V11.054C73.7425 9.11042 75.7312 7.77422 78.3961 7.77422C82.8112 7.73373 86.1522 11.4589 86.1522 16.6822ZM82.6521 16.6822C82.6521 13.4024 80.5838 11.0945 77.6404 11.0945C74.6971 11.0945 72.4697 13.4024 72.4697 16.6822C72.4697 19.962 74.6971 22.2699 77.6404 22.2699C80.544 22.2699 82.6521 19.962 82.6521 16.6822Z" fill="white"/>
<path d="M103.932 19.2331C103.932 23.3227 101.227 25.2258 97.8062 25.2258H89.6524V8.13864H93.1128V13.4834H97.9255C101.386 13.4834 103.932 15.1435 103.932 19.2331ZM100.471 19.2331C100.471 17.654 99.8745 16.6012 97.7664 16.6012H93.073V21.865H97.6471C99.7949 21.865 100.471 20.7718 100.471 19.2331ZM109.858 8.13864V25.2662H106.398V8.13864H109.858Z" fill="white"/>
<path d="M129.507 8.13865V25.2663H126.046V18.0994L126.245 12.6736L117.932 25.2663H113.875V8.13865H117.336V15.3055L117.137 20.6503L125.45 8.09816H129.507V8.13865ZM116.699 0.728834V0H119.444V0.607362C119.444 2.02454 120.319 2.87485 121.711 2.87485C123.063 2.87485 123.938 1.98405 123.938 0.607362V0H126.683V0.728834C126.683 3.76564 124.376 5.54724 121.711 5.54724C119.006 5.54724 116.699 3.72515 116.699 0.728834Z" fill="white"/>
<path d="M162.56 21.946V29.6797H159.099V25.2258H144.86V29.6797H141.399V21.946H144.343C145.098 21.3386 145.576 20.0429 145.974 17.6135L147.485 8.13864H159.497V21.946H162.56ZM156.076 21.946V11.4184H150.468L149.474 17.7755C149.155 19.7595 148.758 21.0552 148.161 21.946H156.076Z" fill="white"/>
<path d="M181.413 17.654H167.73C168.009 20.8123 170.157 22.5534 172.981 22.5534C175.009 22.5534 176.68 21.6626 177.475 20.0025H181.055C179.742 23.8491 176.52 25.6307 172.941 25.6307C167.85 25.6307 164.19 21.9055 164.19 16.7227C164.19 11.5399 167.81 7.77424 172.861 7.77424C178.35 7.73375 181.771 12.0258 181.413 17.654ZM167.929 14.7791H177.714C177.197 12.4307 175.447 10.8111 172.901 10.8111C170.276 10.8111 168.526 12.4712 167.929 14.7791Z" fill="white"/>
<path d="M200.83 8V25.1276H197.37V18.0417H188.46V25.0871H185V8H188.46V14.7215H197.37V8H200.83Z" fill="white"/>
<path d="M219 19.2331C219 23.3227 216.295 25.2258 212.875 25.2258H204.681V8.13864H208.142V13.4834H212.994C216.415 13.4834 219 15.1435 219 19.2331ZM215.5 19.2331C215.5 17.654 214.903 16.6012 212.795 16.6012H208.102V21.865H212.755C214.863 21.865 215.5 20.7718 215.5 19.2331Z" fill="white"/>
<path d="M32.0187 28.9509C24.7797 28.9509 18.893 22.9583 18.893 15.589C18.893 8.21963 24.7797 2.22699 32.0187 2.22699C39.2577 2.22699 45.1444 8.21963 45.1444 15.589C45.1444 22.9583 39.2577 28.9509 32.0187 28.9509ZM32.0187 5.02085C26.2911 5.02085 21.6375 9.75828 21.6375 15.589C21.6375 21.4196 26.2911 26.157 32.0187 26.157C37.7463 26.157 42.3999 21.4196 42.3999 15.589C42.3999 9.75828 37.7463 5.02085 32.0187 5.02085Z" fill="black"/>
<path d="M38.2634 15.9939L33.4108 13.3619L34.5643 12.7546C38.2236 10.811 38.3429 10.7705 38.4225 10.7705L38.7407 12.1067L38.5816 11.4184L38.8202 12.0662C38.6611 12.1472 37.4679 12.7546 36.3144 13.3619L38.8998 14.7386L38.2634 15.9939Z" fill="black"/>
<path d="M26.0127 15.9939L25.4161 14.7791L28.0014 13.4024L25.4161 12.0258L26.0127 10.811L30.9845 13.4024L26.0127 15.9939Z" fill="black"/>
<path d="M32.8539 21.5816V20.2049C33.2517 20.2049 33.5699 19.881 33.5699 19.4761C33.5699 18.8687 32.6948 18.5448 32.2971 19.0307L31.2629 18.1399C31.6607 17.654 32.2573 17.3705 32.8539 17.3705C34.0074 17.3705 34.9222 18.3018 34.9222 19.4761C34.962 20.6098 34.0074 21.5816 32.8539 21.5816Z" fill="black"/>
<path d="M32.8539 24.4159C32.2573 24.4159 31.6607 24.1325 31.2629 23.6871L32.2971 22.7963C32.6948 23.2822 33.5699 22.9583 33.5699 22.3104C33.5699 21.9055 33.2517 21.5816 32.8539 21.5816V20.2049C34.0074 20.2049 34.9222 21.1362 34.9222 22.3104C34.9222 23.4846 34.0074 24.4159 32.8539 24.4159Z" fill="black"/>
</g>
<defs>
<clipPath id="clip0_20_2">
<rect width="219" height="33" fill="white"/>
</clipPath>
</defs>
</svg>
