<svg width="96" height="46" viewBox="0 0 96 46" fill="none" xmlns="http://www.w3.org/2000/svg">
<path d="M0 11.2698C0 7.37407 2.887 4.55664 6.74792 4.55664C8.59142 4.55664 10.2958 5.21752 11.5828 6.60884L10.6088 7.44364C9.49578 6.33058 8.24359 5.84361 6.71313 5.84361C3.68701 5.84361 1.46089 8.00016 1.46089 11.235C1.46089 14.4698 3.72179 16.6264 6.74792 16.6264C8.24359 16.6264 9.49578 16.1394 10.6088 14.9568L11.6175 15.8264C10.3306 17.1829 8.6262 17.8786 6.71313 17.8786C2.887 17.9133 0 15.1307 0 11.2698Z" fill="black"/>
<path d="M15.2003 17.7046V0H16.6264V17.7046H15.2003Z" fill="black"/>
<path d="M20.6959 2.85166V0.3125H22.1916V2.85166H20.6959ZM20.7655 17.704V4.79952H22.1916V17.704H20.7655Z" fill="black"/>
<path d="M25.5308 11.2698C25.5308 7.37407 28.4178 4.55664 32.2787 4.55664C34.1222 4.55664 35.8266 5.21752 37.1135 6.60884L36.1396 7.44364C35.0265 6.33058 33.7744 5.84361 32.2439 5.84361C29.2178 5.84361 26.9916 8.00016 26.9916 11.235C26.9916 14.4698 29.2526 16.6264 32.2787 16.6264C33.7744 16.6264 35.0265 16.1394 36.1396 14.9568L37.1483 15.8264C35.8613 17.1829 34.157 17.8786 32.2439 17.8786C28.4178 17.9133 25.5308 15.1307 25.5308 11.2698Z" fill="black"/>
<path d="M50.3311 17.7046L44.5571 11.1306L41.3571 14.2263V17.7046H39.931V0H41.3571V12.5567L49.2181 4.80006H51.0963L45.4615 10.261L52.0007 17.7046H50.3311Z" fill="black"/>
<path d="M13.1828 34.1567V41.7046H11.7915V34.3306C11.7915 31.5828 10.2958 29.8784 7.72185 29.8784C5.11312 29.8784 2.95657 32.0002 2.95657 34.9219V41.7046H1.56525V28.8001H2.99135V31.3741C3.9305 29.8088 5.70443 28.5566 8.06968 28.5566C11.1654 28.5566 13.1828 30.7132 13.1828 34.1567Z" fill="black"/>
<path d="M17.0437 26.8526V24.3135H18.5394V26.8526H17.0437ZM17.0785 41.705V28.8005H18.5046V41.705H17.0785Z" fill="black"/>
<path d="M21.8438 35.2698C21.8438 31.3741 24.7308 28.5566 28.5917 28.5566C30.4352 28.5566 32.1396 29.2175 33.4266 30.6088L32.4527 31.4436C31.3396 30.3306 30.0874 29.8436 28.5569 29.8436C25.5308 29.8436 23.3047 32.0002 23.3047 35.2698C23.3047 38.5046 25.5656 40.6612 28.5917 40.6612C30.0874 40.6612 31.3396 40.1742 32.4527 38.9916L33.4614 39.8611C32.1744 41.2177 30.47 41.9133 28.5569 41.9133C24.7308 41.9133 21.8438 39.1307 21.8438 35.2698Z" fill="black"/>
<path d="M36.9744 35.722C37.1831 38.7133 39.3049 40.6264 42.2962 40.6264C44.0006 40.6264 45.3224 40.0351 46.3659 38.9568L47.2702 39.7916C46.0528 41.0786 44.3484 41.9133 42.2267 41.9133C38.331 41.9133 35.5135 39.0959 35.5135 35.235C35.5135 31.3393 38.157 28.5566 42.0528 28.5566C45.5658 28.5566 47.9659 31.0958 47.9659 34.9219C47.9659 35.1654 47.9311 35.3741 47.9311 35.722H36.9744ZM37.0092 34.5393H46.6093C46.4006 31.548 44.6267 29.8436 42.0528 29.8436C39.2353 29.8436 37.2875 31.6523 37.0092 34.5393Z" fill="black"/>
<path d="M58.053 45.809V28.8001H59.4791V31.9654C60.3834 29.9132 62.4704 28.5566 64.94 28.5566C68.4531 28.5566 71.201 31.3741 71.201 35.2698C71.201 39.235 68.4879 41.9481 64.9052 41.9481C62.4356 41.9481 60.3834 40.6264 59.4791 38.5046V45.8438H58.053V45.809ZM69.7749 35.2698C69.7749 32.1045 67.6531 29.8784 64.6965 29.8784C61.7052 29.8784 59.4791 32.0697 59.4791 35.2698C59.4791 38.4698 61.6704 40.6612 64.6965 40.6612C67.6531 40.6264 69.7749 38.4003 69.7749 35.2698Z" fill="black"/>
<path d="M74.4706 26.8526V24.3135H75.9663V26.8526H74.4706ZM74.5402 41.705V28.8005H75.9663V41.705H74.5402Z" fill="black"/>
<path d="M79.3055 35.2698C79.3055 31.3741 82.1924 28.5566 86.0534 28.5566C87.8969 28.5566 89.6012 29.2175 90.8882 30.6088L89.9143 31.4436C88.8012 30.3306 87.549 29.8436 86.0186 29.8436C82.9925 29.8436 80.7663 32.0002 80.7663 35.235C80.7663 38.4698 83.0272 40.6264 86.0882 40.6264C87.5838 40.6264 88.836 40.1394 89.9491 38.9568L90.9578 39.8264C89.6708 41.1829 87.9664 41.8786 86.0534 41.8786C82.1924 41.9133 79.3055 39.1307 79.3055 35.2698Z" fill="black"/>
<path d="M93.1839 39.8613H95.2013V41.7048H93.1839V39.8613Z" fill="black"/>
<path d="M62.54 11.2698C62.54 14.5046 64.7661 16.6612 67.7922 16.6612H67.827C67.8618 16.6612 67.9314 16.6612 67.9661 16.6612H90.5751V17.9481H67.7574C63.9313 17.9481 61.0443 15.1655 61.0443 11.2698C61.0443 7.37407 63.9313 4.55664 67.7922 4.55664C67.827 4.55664 67.8966 4.55664 67.9314 4.55664H95.0622V5.84361H67.9314C67.8618 5.84361 67.7922 5.84361 67.7227 5.84361C64.7661 5.84361 62.54 8.00017 62.54 11.2698Z" fill="black"/>
<path d="M72.9053 7.96505C72.2792 7.51287 71.514 7.23461 70.6444 7.16504H68.5922C68.5574 7.16504 68.5227 7.16504 68.4879 7.16504C67.5487 7.16504 66.6792 7.4433 66.0183 7.93027C65.0096 8.66071 64.3835 9.80855 64.3835 11.2347C64.3835 12.626 64.9748 13.7738 65.9487 14.5043C66.5748 14.9564 67.34 15.2347 68.2096 15.3043H70.2618C70.2966 15.3043 70.3314 15.3043 70.3662 15.3043C71.3053 15.3043 72.1749 15.026 72.8358 14.5391C73.8445 13.8086 74.4706 12.6608 74.4706 11.2347C74.4706 9.84334 73.8793 8.69549 72.9053 7.96505Z" fill="#003BF7"/>
</svg>
